<?xml version="1.0" standalone="no"?>
<!DOCTYPE svg PUBLIC "-//W3C//DTD SVG 20010904//EN"
 "http://www.w3.org/TR/2001/REC-SVG-20010904/DTD/svg10.dtd">
<svg version="1.0" xmlns="http://www.w3.org/2000/svg"
 width="382.000000pt" height="358.000000pt" viewBox="0 0 382.000000 358.000000"
 preserveAspectRatio="xMidYMid meet">

<g transform="translate(0.000000,358.000000) scale(0.100000,-0.100000)"
fill="#000000" stroke="none">
<path d="M915 3426 c-16 -7 -41 -26 -55 -41 l-25 -27 -3 -1269 c-2 -1393 -6
-1303 57 -1348 29 -21 32 -21 1041 -21 l1012 0 39 39 39 39 0 1273 c0 1260 0
1274 -20 1307 -40 65 10 62 -1072 62 -797 -1 -989 -3 -1013 -14z m1985 -1346
l0 -1200 -980 0 -980 0 0 1200 0 1200 980 0 980 0 0 -1200z"/>
<path d="M1748 2876 c-313 -212 -482 -331 -485 -342 -2 -6 6 -14 19 -18 13 -3
307 -6 653 -6 566 0 674 4 655 24 -28 26 -659 446 -672 446 -10 0 -86 -47
-170 -104z"/>
<path d="M1667 2473 c-4 -3 -7 -215 -7 -470 l0 -463 258 2 257 3 3 459 c2 361
0 461 -10 468 -16 9 -492 11 -501 1z m321 -119 c111 -72 59 -247 -73 -247
-113 0 -180 118 -119 211 36 55 134 73 192 36z"/>
<path d="M1360 2005 l0 -465 130 0 130 0 0 465 0 465 -130 0 -130 0 0 -465z
m190 -5 l0 -190 -60 0 -60 0 2 183 3 182 45 6 c25 3 51 7 58 7 9 2 12 -42 12
-188z"/>
<path d="M2215 2458 c-3 -7 -4 -215 -3 -463 l3 -450 133 -3 132 -3 0 466 0
465 -130 0 c-95 0 -132 -3 -135 -12z m173 -284 l22 -4 -2 -178 -3 -177 -62 -3
-63 -3 0 184 c0 101 3 186 6 190 5 5 51 1 102 -9z"/>
<path d="M1360 1338 c0 -149 2 -170 14 -158 39 40 244 316 240 322 -3 5 -61 8
-130 8 l-124 0 0 -172z"/>
<path d="M1667 1498 c-26 -21 -227 -310 -221 -319 3 -5 217 -9 476 -9 445 0
470 1 466 18 -5 19 -205 302 -222 314 -20 14 -480 9 -499 -4z"/>
<path d="M2226 1501 c-5 -8 223 -313 244 -326 7 -4 10 51 8 162 l-3 168 -122
3 c-67 1 -124 -2 -127 -7z"/>
<path d="M1506 594 c-5 -14 -4 -15 9 -4 17 14 19 20 6 20 -5 0 -12 -7 -15 -16z"/>
<path d="M420 465 c0 -57 4 -95 10 -95 6 0 10 38 10 95 0 57 -4 95 -10 95 -6
0 -10 -38 -10 -95z"/>
<path d="M610 488 l-1 -73 -64 70 -64 70 1 -95 c2 -93 2 -94 6 -20 l4 75 69
-75 69 -75 0 98 c0 58 -4 97 -10 97 -6 0 -10 -31 -10 -72z"/>
<path d="M682 548 c-25 -25 -14 -65 23 -88 24 -15 35 -29 35 -45 0 -28 -34
-43 -56 -24 -16 13 -33 4 -18 -10 22 -21 53 -22 73 -2 30 30 26 49 -20 91 -47
43 -49 76 -3 67 15 -3 23 0 21 7 -5 16 -40 19 -55 4z"/>
<path d="M770 550 c0 -5 9 -10 20 -10 18 0 20 -7 20 -85 0 -50 4 -85 10 -85 6
0 10 35 10 85 0 78 2 85 20 85 11 0 20 5 20 10 0 6 -22 10 -50 10 -27 0 -50
-4 -50 -10z"/>
<path d="M890 465 c0 -57 4 -95 10 -95 6 0 10 38 10 95 0 57 -4 95 -10 95 -6
0 -10 -38 -10 -95z"/>
<path d="M930 550 c0 -5 9 -10 20 -10 18 0 20 -7 20 -86 0 -56 4 -83 10 -79 6
4 9 38 8 83 -3 73 -2 77 20 80 12 2 20 8 17 13 -8 12 -95 12 -95 -1z"/>
<path d="M1050 482 c0 -92 12 -115 60 -115 48 0 60 23 60 115 0 103 -18 101
-22 -3 -2 -65 -7 -84 -20 -93 -13 -8 -23 -8 -35 0 -14 9 -19 28 -21 93 -4 104
-22 106 -22 3z"/>
<path d="M1229 531 c-59 -60 -26 -162 54 -164 20 0 43 5 50 12 10 10 5 11 -24
6 -29 -5 -41 -2 -64 18 -23 19 -29 32 -28 63 2 52 33 78 85 71 38 -5 52 6 22
17 -34 13 -67 5 -95 -23z"/>
<path d="M1370 465 c0 -57 4 -95 10 -95 6 0 10 38 10 95 0 57 -4 95 -10 95 -6
0 -10 -38 -10 -95z"/>
<path d="M1449 531 c-60 -60 -25 -165 55 -165 81 0 121 110 61 169 -34 35 -78
33 -116 -4z m110 -17 c28 -36 27 -79 -4 -109 -71 -72 -164 40 -97 118 24 27
76 22 101 -9z"/>
<path d="M1760 488 l-1 -73 -64 69 c-36 38 -66 68 -67 65 -2 -2 0 -44 3 -94
l5 -90 2 75 2 75 70 -75 69 -75 1 92 c0 51 -4 95 -10 98 -6 4 -10 -21 -10 -67z"/>
<path d="M1892 484 c-1 -51 3 -86 11 -96 20 -26 52 -30 77 -10 19 15 22 29 25
95 2 42 -1 80 -6 83 -5 3 -9 -26 -9 -66 0 -78 -11 -110 -38 -110 -37 0 -46 17
-53 102 l-6 83 -1 -81z"/>
<path d="M2180 493 c0 -40 -3 -73 -7 -72 -5 0 -33 29 -63 65 -30 35 -58 64
-62 64 -10 0 -9 -168 2 -175 6 -4 10 22 10 67 l0 73 68 -74 67 -73 2 82 c2 46
-2 90 -7 99 -7 11 -9 -6 -10 -56z"/>
<path d="M2236 552 c-9 -15 -4 -182 5 -182 5 0 9 43 9 95 0 91 -2 105 -14 87z"/>
<path d="M2273 548 c2 -7 17 -48 33 -90 16 -43 31 -78 35 -78 4 0 18 34 33 76
15 41 30 83 33 92 6 14 4 15 -9 5 -8 -7 -23 -40 -33 -73 -10 -33 -21 -60 -25
-60 -3 0 -16 32 -29 70 -12 39 -27 70 -33 70 -5 0 -8 -6 -5 -12z"/>
<path d="M2430 465 l0 -95 46 0 c25 0 43 4 40 8 -3 5 -19 8 -36 7 -29 -2 -30
0 -30 37 0 37 1 38 35 38 19 0 35 5 35 10 0 6 -16 10 -35 10 -32 0 -35 2 -35
30 0 28 3 30 36 30 21 0 33 4 29 10 -3 6 -24 10 -46 10 l-39 0 0 -95z"/>
<path d="M2557 553 c-11 -10 -8 -183 2 -183 6 0 11 21 13 48 l3 47 28 -47 c15
-27 32 -48 38 -48 5 0 -2 18 -17 41 l-26 41 21 15 c31 21 28 71 -5 83 -30 12
-48 13 -57 3z m67 -36 c9 -15 7 -21 -8 -33 -33 -24 -46 -17 -46 22 0 31 3 35
21 32 12 -2 27 -11 33 -21z"/>
<path d="M2686 545 c-28 -29 -21 -46 42 -97 26 -21 28 -41 7 -58 -12 -10 -21
-10 -40 -2 -16 8 -25 8 -25 1 0 -13 41 -28 60 -21 20 6 40 32 40 50 0 8 -19
31 -41 52 -47 43 -49 76 -3 67 15 -3 23 0 21 7 -6 18 -43 18 -61 1z"/>
<path d="M2800 466 c0 -66 3 -95 11 -91 11 7 8 170 -4 182 -4 3 -7 -37 -7 -91z"/>
<path d="M2840 550 c0 -5 9 -10 20 -10 17 0 20 -8 23 -87 l3 -88 2 88 c2 80 4
87 22 87 11 0 20 5 20 10 0 6 -20 10 -45 10 -25 0 -45 -4 -45 -10z"/>
<path d="M3112 463 c1 -76 2 -87 7 -48 l6 50 28 -47 c16 -27 33 -48 38 -48 6
0 -2 20 -17 45 -21 36 -23 45 -10 45 15 0 36 28 36 49 0 20 -40 51 -65 51
l-25 0 2 -97z m52 71 c20 -8 21 -38 1 -54 -23 -19 -45 -4 -45 30 0 30 11 37
44 24z"/>
<path d="M3230 466 c0 -57 4 -96 10 -96 6 0 10 36 10 89 0 50 -4 93 -10 96 -6
4 -10 -28 -10 -89z"/>
<path d="M2985 508 c-43 -105 -54 -138 -46 -138 5 0 14 14 20 30 9 26 15 30
46 30 31 0 37 -4 46 -30 6 -16 15 -30 21 -30 6 0 8 6 5 13 -3 6 -17 44 -32 82
-16 39 -31 74 -35 78 -4 5 -15 -11 -25 -35z m40 -40 c6 -25 5 -28 -19 -28 -29
0 -31 7 -14 45 13 29 23 23 33 -17z"/>
<path d="M3332 530 c-5 -14 -21 -54 -36 -89 -30 -73 -29 -71 -17 -71 5 0 14
14 20 30 9 26 15 30 46 30 31 0 37 -4 46 -30 6 -16 15 -30 20 -30 8 0 -13 61
-51 145 -17 40 -18 40 -28 15z m38 -77 c0 -7 -11 -13 -25 -13 -28 0 -30 6 -14
47 l11 28 13 -25 c8 -14 14 -31 15 -37z"/>
<path d="M184 296 c-51 -23 -68 -100 -31 -144 32 -39 117 -38 117 2 0 19 -4
21 -40 18 -36 -4 -40 -2 -46 24 -10 39 7 59 50 59 30 0 36 3 36 21 0 14 -8 24
-22 28 -29 7 -28 8 -64 -8z"/>
<path d="M343 295 c-109 -47 -33 -210 78 -165 37 16 59 46 59 83 0 41 -17 67
-55 83 -41 17 -42 17 -82 -1z m80 -56 c5 -9 7 -28 3 -42 -5 -23 -12 -27 -42
-27 -27 0 -37 5 -43 23 -9 24 -4 48 13 60 17 12 58 4 69 -14z"/>
<path d="M803 295 c-55 -24 -71 -90 -33 -138 53 -67 160 -31 160 54 0 16 -7
19 -45 19 -38 0 -45 -3 -45 -20 0 -14 7 -20 21 -20 27 0 19 -24 -10 -28 -32
-5 -51 15 -51 54 0 42 33 64 68 45 22 -12 52 -5 52 11 0 9 -61 38 -77 38 -4
-1 -22 -7 -40 -15z"/>
<path d="M1093 299 c-32 -9 -63 -50 -63 -84 0 -56 67 -104 124 -89 53 13 82
85 55 136 -8 16 -69 51 -81 47 -2 0 -18 -5 -35 -10z m78 -60 c19 -36 -3 -69
-45 -69 -34 0 -46 13 -46 49 0 43 70 58 91 20z"/>
<path d="M1943 295 c-80 -34 -66 -149 21 -171 40 -10 99 24 110 63 21 77 -55
141 -131 108z m75 -47 c7 -7 12 -21 12 -33 0 -29 -19 -45 -52 -45 -25 0 -48
23 -48 49 0 33 63 54 88 29z"/>
<path d="M2920 303 c-24 -9 -52 -36 -61 -60 -14 -38 8 -92 46 -110 44 -21 85
-11 85 20 0 20 -4 23 -30 19 -36 -5 -60 12 -60 43 0 31 24 48 60 43 26 -4 30
-1 30 18 0 27 -34 40 -70 27z"/>
<path d="M3430 293 c-42 -21 -61 -76 -42 -117 25 -55 132 -73 132 -22 0 19 -4
21 -40 18 -36 -4 -40 -2 -46 24 -10 39 7 59 50 59 31 0 36 3 36 23 0 12 -6 22
-14 22 -8 0 -20 2 -28 5 -7 3 -29 -3 -48 -12z"/>
<path d="M510 215 l0 -85 45 0 c32 0 45 4 45 14 0 8 -10 16 -22 18 -21 3 -23
9 -26 71 -3 59 -5 67 -22 67 -18 0 -20 -7 -20 -85z"/>
<path d="M630 215 l0 -85 50 0 c38 0 50 4 50 15 0 10 -10 15 -30 15 -23 0 -30
4 -30 20 0 15 7 20 25 20 16 0 25 6 25 15 0 9 -9 15 -25 15 -18 0 -25 5 -25
20 0 16 7 20 30 20 20 0 30 5 30 15 0 11 -12 15 -50 15 l-50 0 0 -85z"/>
<path d="M960 215 c0 -78 2 -85 20 -85 18 0 20 7 20 85 0 78 -2 85 -20 85 -18
0 -20 -7 -20 -85z"/>
<path d="M1347 278 c-3 -13 -9 -51 -13 -85 -6 -60 -5 -63 15 -63 16 0 21 6 22
28 0 15 4 36 9 47 6 17 10 12 20 -27 17 -65 42 -66 60 -2 14 50 30 43 30 -13
0 -29 3 -33 26 -33 19 0 24 4 20 18 -3 9 -8 40 -11 67 -10 76 -14 85 -40 85
-19 0 -25 -8 -35 -50 -7 -27 -15 -48 -20 -45 -4 2 -13 25 -19 50 -9 38 -15 45
-35 45 -16 0 -26 -7 -29 -22z"/>
<path d="M1605 283 c-4 -10 -18 -48 -30 -85 l-24 -68 24 0 c12 0 25 7 29 15 3
9 19 15 41 15 24 0 35 -4 35 -15 0 -9 9 -15 25 -15 14 0 25 1 25 3 0 2 -13 39
-29 83 -27 73 -31 79 -59 82 -21 2 -32 -2 -37 -15z m54 -75 c1 -12 -6 -18 -19
-18 -23 0 -24 8 -9 47 10 26 12 27 19 8 5 -11 9 -28 9 -37z"/>
<path d="M1730 295 c0 -3 11 -23 25 -45 16 -25 25 -54 25 -80 0 -36 2 -40 25
-40 23 0 25 4 25 40 0 26 9 55 25 80 31 49 31 50 2 50 -16 0 -28 -9 -36 -27
-12 -27 -13 -27 -27 -8 -8 10 -14 22 -14 27 0 4 -11 8 -25 8 -14 0 -25 -2 -25
-5z"/>
<path d="M2110 215 c0 -77 2 -85 19 -85 15 0 21 8 23 33 l3 32 18 -32 c13 -24
25 -33 43 -33 l26 0 -20 31 c-19 31 -19 32 -1 50 44 44 12 89 -62 89 l-49 0 0
-85z m78 27 c3 -17 -2 -22 -17 -22 -16 0 -21 6 -21 26 0 33 33 30 38 -4z"/>
<path d="M2350 215 l0 -85 49 0 c67 0 101 27 101 81 0 59 -34 89 -100 89 l-50
0 0 -85z m101 23 c13 -24 3 -55 -23 -69 -28 -15 -39 4 -34 56 3 22 5 41 5 42
4 8 44 -14 52 -29z"/>
<path d="M2530 215 l0 -85 50 0 c38 0 50 4 50 15 0 9 -9 15 -25 15 -18 0 -25
5 -25 20 0 15 7 20 25 20 16 0 25 6 25 15 0 9 -9 15 -25 15 -18 0 -25 5 -25
20 0 15 7 20 25 20 16 0 25 6 25 15 0 11 -12 15 -50 15 l-50 0 0 -85z"/>
<path d="M2660 215 l0 -85 50 0 c38 0 50 4 50 15 0 9 -9 15 -25 15 -24 0 -25
2 -25 70 0 68 -1 70 -25 70 -25 0 -25 -1 -25 -85z"/>
<path d="M3036 222 c-14 -42 -26 -80 -26 -85 0 -14 41 -7 46 8 4 9 19 15 39
15 20 0 35 -6 39 -15 5 -15 46 -22 46 -7 0 4 -12 42 -27 85 -27 74 -29 77 -60
77 -30 0 -32 -2 -57 -78z m78 -9 c6 -20 4 -23 -18 -23 -30 0 -29 -2 -15 40 12
34 19 30 33 -17z"/>
<path d="M3202 225 c2 -42 9 -80 16 -87 7 -7 33 -13 58 -13 61 0 74 19 74 107
0 61 -2 68 -20 68 -18 0 -20 -7 -20 -54 0 -67 -7 -86 -30 -86 -27 0 -33 16
-31 81 2 58 1 59 -25 59 l-26 0 4 -75z"/>
<path d="M3585 283 c-4 -10 -18 -48 -30 -85 l-24 -68 24 0 c12 0 25 7 29 15 3
9 19 15 41 15 24 0 35 -4 35 -15 0 -9 9 -15 25 -15 14 0 25 1 25 3 0 2 -13 39
-29 83 -27 73 -31 79 -59 82 -21 2 -32 -2 -37 -15z m54 -75 c1 -12 -6 -18 -19
-18 -23 0 -24 8 -9 47 10 26 12 27 19 8 5 -11 9 -28 9 -37z"/>
</g>
</svg>
